HIERARCHY
ROOT Hips
{
	OFFSET	0.00	0.00	0.00
	CHANNELS 6 Xposition Yposition Zposition Zrotation Xrotation Yrotation
	JOINT LeftUpLeg
	{
		OFFSET	 0.126116	-0.014019	-0.065224
		CHANNELS 3 Zrotation Xrotation Yrotation
		JOINT LeftLeg
		{
			OFFSET	 0.000000	 0.000000	 0.569914
			CHANNELS 3 Zrotation Xrotation Yrotation
			JOINT LeftFoot
			{
				OFFSET	 0.000000	 0.000000	 0.544423
				CHANNELS 3 Zrotation Xrotation Yrotation
				JOINT LeftToeBase
				{
					OFFSET	 0.000000	 0.000000	 0.207117
					CHANNELS 3 Zrotation Xrotation Yrotation
					End Site
					{
						OFFSET	 0.000000	 0.000000	 0.207117
					}
				}
			}
		}
	}
	JOINT RightUpLeg
	{
		OFFSET	-0.124023	-0.008373	-0.065224
		CHANNELS 3 Zrotation Xrotation Yrotation
		JOINT RightLeg
		{
			OFFSET	 0.000000	 0.000000	 0.570047
			CHANNELS 3 Zrotation Xrotation Yrotation
			JOINT RightFoot
			{
				OFFSET	 0.000000	 0.000000	 0.544354
				CHANNELS 3 Zrotation Xrotation Yrotation
				JOINT RightToeBase
				{
					OFFSET	 0.000000	 0.000000	 0.207540
					CHANNELS 3 Zrotation Xrotation Yrotation
					End Site
					{
						OFFSET	 0.000000	 0.000000	 0.207540
					}
				}
			}
		}
	}
	JOINT Spine
	{
		OFFSET	 0.000184	-0.007763	 0.117403
		CHANNELS 3 Zrotation Xrotation Yrotation
		JOINT Spine1
		{
			OFFSET	 0.000000	 0.000000	 0.137269
			CHANNELS 3 Zrotation Xrotation Yrotation
			JOINT Spine2
			{
				OFFSET	 0.000000	 0.000000	 0.156879
				CHANNELS 3 Zrotation Xrotation Yrotation
				JOINT LeftShoulder
				{
					OFFSET	 0.080501	-0.002496	 0.160144
					CHANNELS 3 Zrotation Xrotation Yrotation
					JOINT LeftArm
					{
						OFFSET	 0.000000	 0.000000	 0.164363
						CHANNELS 3 Zrotation Xrotation Yrotation
						JOINT LeftForeArm
						{
							OFFSET	 0.000000	 0.000000	 0.364576
							CHANNELS 3 Zrotation Xrotation Yrotation
							JOINT LeftHand
							{
								OFFSET	 0.000000	 0.000000	 0.360812
								CHANNELS 3 Zrotation Xrotation Yrotation
								JOINT LeftHandIndex1
								{
									OFFSET	 0.000000	 0.000000	 0.086006
									CHANNELS 3 Zrotation Xrotation Yrotation
									JOINT LeftHandIndex2
									{
										OFFSET	 0.000000	 0.000000	 0.047237
										CHANNELS 3 Zrotation Xrotation Yrotation
										JOINT LeftHandIndex3
										{
											OFFSET	-0.004284	-0.000551	 0.038165
											CHANNELS 3 Zrotation Xrotation Yrotation
											End Site
											{
												OFFSET	-0.004284	-0.000551	 0.038165
											}
										}
									}
								}
							}
						}
					}
				}
				JOINT Neck
				{
					OFFSET	 0.000000	 0.000000	 0.176489
					CHANNELS 3 Zrotation Xrotation Yrotation
					JOINT Head
					{
						OFFSET	 0.000000	-0.001747	 0.077940
						CHANNELS 3 Zrotation Xrotation Yrotation
						End Site
						{
							OFFSET	 0.000000	-0.001747	 0.077940
						}
					}
				}
				JOINT RightShoulder
				{
					OFFSET	-0.080363	 0.000306	 0.159706
					CHANNELS 3 Zrotation Xrotation Yrotation
					JOINT RightArm
					{
						OFFSET	 0.000000	 0.000000	 0.164196
						CHANNELS 3 Zrotation Xrotation Yrotation
						JOINT RightForeArm
						{
							OFFSET	 0.000000	 0.000000	 0.365611
							CHANNELS 3 Zrotation Xrotation Yrotation
							JOINT RightHand
							{
								OFFSET	 0.000000	 0.000000	 0.360648
								CHANNELS 3 Zrotation Xrotation Yrotation
								JOINT RightHandIndex1
								{
									OFFSET	 0.000000	 0.000000	 0.069977
									CHANNELS 3 Zrotation Xrotation Yrotation
									JOINT RightHandIndex2
									{
										OFFSET	 0.000000	 0.000000	 0.052305
										CHANNELS 3 Zrotation Xrotation Yrotation
										JOINT RightHandIndex3
										{
											OFFSET	 0.009002	-0.000782	 0.042196
											CHANNELS 3 Zrotation Xrotation Yrotation
											End Site
											{
												OFFSET	 0.009002	-0.000782	 0.042196
											}
										}
									}
								}
							}
						}
					}
				}
			}
		}
	}
}
MOTION
Frames:    8
Frame Time: 0.03333334
-0.714081	-1.662421	 1.272941	 179.868100	 0.295796	 0.758500	-32.378050	-3.430838	-176.987800	 6.092645	-11.786210	 1.653653	-19.934740	 70.567040	-0.310009	-2.385833	 28.452760	 0.000004	 22.411010	-2.727364	 175.043800	-19.758080	-9.857859	-1.528320	 24.526390	 69.434860	-1.146183	 2.384659	 28.388700	-0.000001	-10.906300	 0.118924	-1.908436	-7.796554	 13.933390	 3.106966	 19.178140	-19.723190	 4.515908	-91.776220	 78.527350	-180.000000	-7.653588	-8.143489	-0.274346	-5.335916	-4.065916	-22.502560	 6.649449	-10.485680	-5.733491	-4.131196	 21.524690	 0.986298	-5.167839	 0.733520	 3.519257	-1.378229	 35.397820	-2.634230	 0.000022	-3.783157	-0.089647	-11.864620	 9.071717	 0.944592	 89.782060	 78.203900	-180.000000	 6.847813	-4.676548	-2.980462	 6.670185	-3.135513	 26.885170	 9.272117	-1.601874	 42.161710	 5.715225	 19.176060	-3.692089	 5.027514	 0.245388	-9.378011	-2.350882	 35.473990	 5.254307
-0.716456	-1.661418	 1.273903	-177.852300	 3.711075	-1.386901	-30.316440	-4.618524	-176.976400	 0.442693	-5.692910	 0.237702	-15.676660	 56.895340	 2.376123	-2.385833	 28.452760	 0.000004	 20.458090	-7.847206	 177.976700	-7.407997	-15.915030	 0.958740	 8.543387	 74.177440	 3.229654	 2.384659	 28.388700	-0.000001	-13.849840	 5.091903	 3.584336	-7.423025	-1.485462	-9.273302	 20.896520	-12.112090	 10.504800	-91.776210	 78.527400	-180.000000	-26.585010	-4.455515	-2.656054	-5.932791	-4.452143	-25.817620	 8.718605	-11.073890	-5.033271	-4.131196	 21.524690	 0.986298	-5.167839	 0.733520	 3.519257	-1.378229	 35.397820	-2.634230	 1.328305	 4.067178	-0.133899	-11.102580	-3.862575	-2.645607	 89.782040	 78.203870	-180.000000	-11.295970	-4.198964	-7.985496	-1.246277	-8.645300	 30.946500	-3.982765	 28.190820	 80.934240	 5.715225	 19.176060	-3.692089	 5.027514	 0.245388	-9.378011	-2.350882	 35.473990	 5.254307
-0.716920	-1.660791	 1.274279	-177.295100	 4.661664	-1.588994	-29.785940	-4.818725	-177.282000	-0.705304	-4.261589	 0.092670	-14.447540	 53.504390	 2.744604	-2.385833	 28.452760	 0.000004	 19.369710	-9.053580	 178.494000	-4.571374	-16.596970	 1.814578	-2.761225	 75.177480	 12.526510	 2.384659	 28.388700	-0.000001	-14.665940	 6.232232	 4.788715	-7.655892	-4.999954	-13.215780	 21.167320	-10.167160	 12.647610	-91.776150	 78.527420	 180.000000	-32.254240	-2.662258	-2.257925	-5.883221	-5.043785	-28.586870	 8.834019	-11.479030	-4.796076	-4.131196	 21.524690	 0.986298	-5.167839	 0.733520	 3.519257	-1.378229	 35.397820	-2.634230	 1.688366	 6.179498	-0.205535	-11.037490	-7.374819	-3.534047	 89.782170	 78.203920	 179.999900	-14.517300	-3.449568	-9.313815	-3.280122	-10.726510	 32.801900	-5.878658	 30.394530	 91.043590	 5.715225	 19.176060	-3.692089	 5.027514	 0.245388	-9.378011	-2.350882	 35.473990	 5.254307
-0.715469	-1.658787	 1.274110	-176.812500	 5.062691	-2.481250	-29.108600	-3.445502	-176.677700	-0.800216	-0.510852	 0.010277	-13.691900	 49.361580	 2.368895	-2.385833	 28.452760	 0.000004	 21.279420	-10.409500	 179.500300	-4.649436	-19.059660	 2.048488	-10.851240	 79.984250	 21.069300	 2.384659	 28.388700	-0.000001	-15.611770	 6.588224	 5.643161	-8.247753	-6.611710	-13.507060	 21.042840	-9.377222	 12.149310	-91.776250	 78.527420	-179.999900	-34.449670	 0.155750	 3.079448	-7.347886	-6.247373	-38.827580	 7.920569	-12.064000	-4.554332	-4.131196	 21.524690	 0.986298	-5.167839	 0.733520	 3.519257	-1.378229	 35.397820	-2.634230	 1.635125	 7.162585	 0.230475	-10.819790	-8.502664	-3.732310	 89.782100	 78.203900	 180.000000	-16.679460	-2.204097	-11.629430	-2.747984	-12.839910	 38.563160	-6.173441	 33.556540	 94.476320	 5.715225	 19.176060	-3.692089	 5.027514	 0.245388	-9.378011	-2.350882	 35.473990	 5.254307
-0.713437	-1.655904	 1.273733	-176.354000	 5.475010	-3.322292	-28.248550	-5.826280	-176.259400	-0.880166	-4.888844	 0.091371	-14.139880	 49.582760	 3.520347	-2.385833	 28.452760	 0.000004	 23.025870	-11.804730	-179.406400	-4.708110	-21.523820	 2.279530	-30.393240	 83.952110	 40.994320	 2.384659	 28.388700	-0.000001	-16.696850	 6.808573	 6.499793	-9.027973	-7.614646	-14.161360	 21.025610	-8.804634	 11.991190	-91.776180	 78.527430	-180.000000	-36.129440	 3.414398	 9.513772	-9.071335	-7.280556	-50.438240	 7.080516	-12.690380	-4.314731	-4.131196	 21.524690	 0.986298	-5.167839	 0.733520	 3.519257	-1.378229	 35.397820	-2.634230	 1.578321	 8.083433	 0.640535	-10.620950	-9.561036	-3.907391	 89.782070	 78.203900	-180.000000	-18.870120	-0.311328	-14.104140	-1.517502	-15.289840	 45.878760	-5.673842	 36.205530	 96.224640	 5.715225	 19.176060	-3.692089	 5.027514	 0.245388	-9.378011	-2.350882	 35.473990	 5.254307
-0.709805	-1.651004	 1.272724	-176.169200	 5.370292	-3.795478	-27.988890	-8.363199	-176.031200	 0.033774	-11.779570	 0.405562	-16.719050	 52.070950	 5.986931	-2.385833	 28.452760	 0.000004	 25.039670	-12.954420	-178.593500	-5.657580	-24.003590	 2.137718	-51.533190	 87.114400	 62.880590	 2.384659	 28.388700	-0.000001	-17.838750	 6.471050	 7.002738	-10.032430	-5.413010	-14.407750	 21.289760	-9.748695	 12.131320	-91.776200	 78.527420	-180.000000	-33.115990	 7.405137	 18.963300	-11.422580	-8.214238	-66.082610	 6.659209	-13.052930	-4.165302	-4.131196	 21.524690	 0.986298	-5.167839	 0.733520	 3.519257	-1.378229	 35.397820	-2.634230	 1.458445	 8.027612	 1.015194	-10.471840	-9.160767	-3.751448	 89.782100	 78.203900	 180.000000	-18.855130	 3.425105	-16.529620	 1.561524	-17.550460	 56.550780	-3.256393	 35.273060	 87.995670	 5.715225	 19.176060	-3.692089	 5.027514	 0.245388	-9.378011	-2.350882	 35.473990	 5.254307
-0.705851	-1.645482	 1.271580	-176.030900	 5.229989	-4.196446	-27.949500	-9.578773	-175.844800	 0.959466	-16.398410	 0.822636	-19.125360	 53.929460	 8.118713	-2.385833	 28.452760	 0.000004	 26.772070	-14.056320	-177.731200	-6.514158	-26.343140	 1.949399	-128.129900	 88.159000	 140.114500	 2.384659	 28.388700	-0.000001	-19.109210	 6.120622	 7.453975	-11.141280	-2.649114	-14.719780	 21.654540	-11.003000	 12.509270	-91.776110	 78.527360	 179.999900	-29.043220	 12.235140	 27.255070	-13.516330	-8.486124	-79.727730	 6.336443	-13.348620	-4.047054	-4.131196	 21.524690	 0.986298	-5.167839	 0.733520	 3.519257	-1.378229	 35.397820	-2.634230	 1.358177	 7.928648	 1.318127	-10.353460	-8.756425	-3.608779	 89.782210	 78.203920	 179.999900	-18.560010	 8.113370	-17.788420	 4.649317	-19.017220	 66.200270	-2.806303	 33.520540	 80.263200	 5.715225	 19.176060	-3.692089	 5.027514	 0.245388	-9.378011	-2.350882	 35.473990	 5.254307
-0.700713	-1.637312	 1.270156	-175.916100	 5.001772	-4.459393	-28.650940	-10.300710	-175.802700	 2.189420	-21.299060	 1.506639	-22.552270	 55.897930	 11.258770	-2.385833	 28.452760	 0.000004	 27.366850	-15.513120	-176.687500	-6.704644	-28.937770	 2.032898	 178.601200	 88.486640	-166.602700	 2.384659	 28.388700	-0.000001	-20.972000	 5.670057	 7.849676	-12.685210	 2.152096	-15.609070	 22.643180	-13.394120	 14.137290	-91.776160	 78.527420	 180.000000	-22.051850	 20.258650	 34.866600	-15.648220	-8.099653	-94.250500	 5.930378	-13.703910	-3.913143	-4.131196	 21.524690	 0.986298	-5.167839	 0.733520	 3.519257	-1.378229	 35.397820	-2.634230	 1.477430	 8.037712	 1.292646	-10.300890	-9.027287	-3.682801	 89.782190	 78.203900	 179.999900	-18.597360	 16.166480	-17.611120	 8.098834	-20.162260	 76.504630	-6.078753	 30.645020	 73.071710	 5.715225	 19.176060	-3.692089	 5.027514	 0.245388	-9.378011	-2.350882	 35.473990	 5.254307
